<?xml version="1.0" encoding="UTF-8"?>
<!-- Generator: Adobe Illustrator 16.0.3, SVG Export Plug-In . SVG Version: 6.00 Build 0)  -->
<!DOCTYPE svg PUBLIC "-//W3C//DTD SVG 1.1//EN" "http://www.w3.org/Graphics/SVG/1.1/DTD/svg11.dtd">
<svg version="1.1" id="Capa_1" xmlns="http://www.w3.org/2000/svg" xmlns:xlink="http://www.w3.org/1999/xlink" x="0px" y="0px" width="100px" height="100px" viewBox="0 0 100 100" enable-background="new 0 0 100 100" xml:space="preserve">
<g>
	<path fill="none" stroke="#FFFFFF" stroke-width="1.7921" stroke-miterlimit="10" d="M96.658,49.549h0.009   C96.503,24.462,76.13,5.32,51.004,5.32c-25.125,0-45.522,19.142-45.686,44.229h0.032C5.335,50.03,5.326,50.513,5.326,51   c0,25.229,20.451,45.68,45.678,45.68S96.683,76.229,96.683,51C96.683,50.513,96.673,50.03,96.658,49.549z M51.004,84.824   C32.323,84.824,17.18,69.682,17.18,51c0-2.332,0.236-4.607,0.686-6.807c2.838-13.509,13.594-23.471,25.915-26.24   c2.328-0.507,4.744-0.775,7.223-0.775c6.01,0.061,11.571,1.573,16.377,4.224c0.044,0.025,0.09,0.05,0.134,0.074   c0.161,0.091,0.322,0.182,0.48,0.275c0.12,0.069,0.237,0.138,0.354,0.208c0.094,0.057,0.187,0.112,0.278,0.168   c0.173,0.104,0.343,0.212,0.514,0.32c0.044,0.029,0.087,0.054,0.131,0.083c0.202,0.131,0.403,0.262,0.603,0.396   c0.02,0.013,0.037,0.024,0.056,0.037c0.205,0.141,0.41,0.28,0.612,0.425c0.018,0.013,0.037,0.026,0.056,0.039   c0.18,0.128,0.356,0.259,0.532,0.389c0.05,0.036,0.099,0.072,0.146,0.107c0.118,0.089,0.236,0.181,0.354,0.273   c0.11,0.084,0.222,0.169,0.331,0.255c0.023,0.021,0.048,0.04,0.072,0.059c7.203,5.75,11.942,14.465,12.741,24.638   c0.033,0.613,0.052,1.229,0.052,1.851C84.827,69.682,69.685,84.824,51.004,84.824z"/>
	<path fill="#FFFFFF" d="M85.278,51c0,18.846-15.348,34.12-34.279,34.12c-18.932,0-34.277-15.274-34.277-34.12   c0-18.842,15.346-34.118,34.277-34.118C69.931,16.882,85.278,32.158,85.278,51"/>
	<path fill="#FFFFFF" d="M78.82,54.211c0.399-0.947,0.669-2.114,0.669-3.534c0-2.812-1.239-5.118-3.572-6.661   c-1.915-1.282-4.37-1.93-7.294-1.93c-2.917,0-5.361,0.651-7.264,1.921c-0.092,0.061-0.171,0.129-0.258,0.191   c-0.673-0.652-1.541-1.166-2.597-1.491c-1.189-0.375-2.832-0.555-5.016-0.555h-8.628h-4.53H22.526v7.558h1.9v2.901   c0,1.328,0.485,3.249,2.778,4.847c1.72,1.222,4.004,1.842,6.792,1.842c2.675,0,4.823-0.613,6.42-1.833v1.77h14.532v-5.082   c1.273-0.113,2.334-0.306,3.209-0.578c0.022-0.006,0.042-0.016,0.068-0.024c0.89,2.691,3.438,5.733,10.413,5.733   c0.83,0,1.616-0.04,2.352-0.122l3.132,2.829l7.963-5.288L78.82,54.211z"/>
	<path fill="none" stroke="#FFFFFF" stroke-width="0.9251" stroke-miterlimit="10" d="M78.82,54.211   c0.399-0.947,0.669-2.114,0.669-3.534c0-2.812-1.239-5.118-3.572-6.661c-1.915-1.282-4.37-1.93-7.294-1.93   c-2.917,0-5.361,0.651-7.264,1.921c-0.092,0.061-0.171,0.129-0.258,0.191c-0.673-0.652-1.541-1.166-2.597-1.491   c-1.189-0.375-2.832-0.555-5.016-0.555h-8.628h-4.53H22.526v7.558h1.9v2.901c0,1.328,0.485,3.249,2.778,4.847   c1.72,1.222,4.004,1.842,6.792,1.842c2.675,0,4.823-0.613,6.42-1.833v1.77h14.532v-5.082c1.273-0.113,2.334-0.306,3.209-0.578   c0.022-0.006,0.042-0.016,0.068-0.024c0.89,2.691,3.438,5.733,10.413,5.733c0.83,0,1.616-0.04,2.352-0.122l3.132,2.829l7.963-5.288   L78.82,54.211z"/>
	<path fill="#041E41" d="M78.792,54.205c0.4-0.949,0.672-2.114,0.672-3.534c0-2.812-1.239-5.119-3.574-6.662   c-1.916-1.28-4.369-1.929-7.292-1.929c-2.918,0-5.364,0.65-7.265,1.921c-0.093,0.061-0.172,0.129-0.258,0.191   c-0.673-0.655-1.541-1.166-2.599-1.491c-1.189-0.375-2.83-0.557-5.015-0.557h-8.626h-4.532H22.5v7.558h1.899v2.902   c0,1.327,0.485,3.249,2.777,4.849c1.72,1.222,4.005,1.841,6.792,1.841c2.673,0,4.823-0.614,6.42-1.833v1.771h14.532v-5.084   c1.274-0.113,2.334-0.307,3.208-0.577c0.024-0.007,0.045-0.016,0.068-0.024c0.892,2.69,3.44,5.732,10.413,5.732   c0.832,0,1.617-0.041,2.353-0.121l3.133,2.829l7.962-5.288L78.792,54.205z"/>
	<path fill="#F5F3F2" d="M76.724,54.689c0.76-1.065,1.146-2.399,1.146-3.983c0-2.268-0.961-4.052-2.846-5.296   c-1.643-1.097-3.788-1.652-6.382-1.652c-2.583,0-4.726,0.555-6.358,1.649c-0.578,0.381-1.063,0.822-1.467,1.304   c-0.404-1.132-1.359-1.969-2.787-2.406c-1.026-0.326-2.506-0.481-4.522-0.481H43.238h-1.247h-7.719v4.271h1.9v4.09   c0,0.607-0.203,0.692-0.339,0.749c-0.097,0.038-0.502,0.171-1.792,0.171c-2.001,0-2.001-0.633-2.001-0.903v-4.107h1.972v-4.271   h-9.826v4.271h1.901v4.543c0,1.362,0.705,2.545,2.086,3.51c1.437,1.021,3.402,1.538,5.841,1.538c2.392,0,4.258-0.531,5.56-1.589   c1.125-0.935,1.693-2.098,1.693-3.459v-4.543h0.725v0.056h2.248v4.938h-2.163v4.532h11.25V53.09h-2.444v-0.418h0.833   c2.65,0,4.601-0.206,5.965-0.632c0.734-0.233,1.313-0.527,1.769-0.861c0.16,3.068,1.96,6.496,9.209,6.496   c1.053,0,2.021-0.072,2.887-0.21l2.753,2.483l4.98-3.31L76.724,54.689z M66.45,49.084c0.515-0.41,1.313-0.673,2.341-0.673   c0.995,0,1.696,0.215,2.238,0.654c0.518,0.412,0.695,0.842,0.695,1.641c0,0.059-0.001,0.116-0.001,0.171l-1.478-1.123l-3.363,3.004   c-0.119-0.07-0.229-0.146-0.333-0.229c-0.558-0.438-0.794-0.807-0.794-1.701C65.756,49.722,66.122,49.338,66.45,49.084    M51.807,48.826h-0.925v-0.776h1.687c1.232,0,1.53,0.052,1.571,0.061c0.073,0.019,0.113,0.137,0.125,0.137   c0.005,0.016,0.085,0.374-0.098,0.464C53.986,48.803,53.48,48.826,51.807,48.826"/>
	<path fill="#A41F35" d="M42.145,47.145h-1.973v5.637c0,1.026-0.432,1.897-1.298,2.617c-1.096,0.892-2.717,1.337-4.86,1.337   c-2.218,0-3.954-0.445-5.208-1.337c-1.083-0.756-1.626-1.629-1.626-2.617v-5.637h-1.899v-2.083h7.636v2.083h-1.972v5.202   c0,1.331,1.033,1.994,3.095,1.994c1.078,0,1.816-0.083,2.218-0.254c0.673-0.28,1.009-0.866,1.009-1.759v-5.183h-1.901v-2.083h6.779   V47.145z"/>
	<path fill="#A41F35" d="M45.333,54.329V47.2h-2.248v-2.138h8.389h1.018h1.015c1.888,0,3.285,0.144,4.195,0.43   c1.499,0.461,2.246,1.359,2.246,2.694c0,1.42-0.865,2.406-2.599,2.954c-1.243,0.391-3.119,0.582-5.635,0.582h-1.927v2.607h2.444   v2.343h-9.06v-2.343H45.333z M49.788,47.2v2.55h2.019c1.534,0,2.509-0.082,2.93-0.243c0.42-0.163,0.63-0.506,0.63-1.032   c0-0.625-0.32-1.019-0.955-1.184c-0.245-0.061-0.86-0.092-1.843-0.092H49.788z"/>
	<path fill="#A41F35" d="M77.391,56.722L74.4,58.71l-2.521-2.275c-0.935,0.191-2.008,0.287-3.222,0.287   c-5.422,0-8.13-1.956-8.13-5.873c0-1.884,0.785-3.348,2.358-4.387c1.462-0.976,3.384-1.465,5.756-1.465   c2.385,0,4.31,0.489,5.772,1.465c1.571,1.039,2.36,2.503,2.36,4.387c0,1.792-0.555,3.169-1.658,4.136L77.391,56.722z M70.3,51.315   l2.049,1.559c0.315-0.551,0.473-1.225,0.473-2.025c0-1.134-0.391-2.01-1.172-2.632c-0.735-0.594-1.735-0.894-2.992-0.894   c-1.288,0-2.293,0.289-3.009,0.859c-0.77,0.596-1.153,1.486-1.153,2.667c0,1.231,0.41,2.167,1.234,2.812   c0.739,0.597,1.709,0.896,2.912,0.896c0.379,0,0.732-0.03,1.06-0.091l-1.466-1.308L70.3,51.315z"/>
	<path fill="#041E41" d="M51.004,5.32C25.776,5.32,5.326,25.771,5.326,51s20.451,45.68,45.678,45.68S96.683,76.229,96.683,51   S76.231,5.32,51.004,5.32 M51.004,84.824C32.323,84.824,17.18,69.682,17.18,51c0-18.681,15.143-33.823,33.824-33.823   S84.827,32.319,84.827,51C84.827,69.682,69.685,84.824,51.004,84.824"/>
	<path fill="#A41F35" d="M17.177,49.549c0.932-18.954,17.078-32.54,33.827-32.372c18.374,0.182,32.549,13.934,33.804,32.372h11.859   C96.503,24.462,76.13,5.32,51.004,5.32c-25.125,0-45.523,19.142-45.687,44.229H17.177z"/>
	<polygon fill="#FFFFFF" points="14.918,39.685 11.532,38.564 12.192,36.571 12.802,36.772 12.383,38.042 13.079,38.272    13.499,37.003 14.114,37.205 13.694,38.475 15.158,38.962  "/>
	<path fill="#FFFFFF" d="M15.747,32.774c0.233,0.104,0.435,0.246,0.603,0.425c0.17,0.181,0.295,0.386,0.379,0.62   c0.087,0.241,0.125,0.488,0.117,0.738c-0.009,0.25-0.063,0.489-0.166,0.716c-0.088,0.2-0.209,0.378-0.362,0.538   c-0.152,0.161-0.328,0.293-0.524,0.394c-0.253,0.133-0.521,0.202-0.795,0.209c-0.276,0.009-0.543-0.047-0.805-0.163   c-0.233-0.104-0.435-0.245-0.601-0.423c-0.168-0.178-0.293-0.385-0.38-0.623c-0.085-0.234-0.124-0.479-0.115-0.733   c0.009-0.256,0.064-0.497,0.167-0.725c0.101-0.227,0.244-0.428,0.426-0.603c0.183-0.175,0.392-0.31,0.623-0.404   c0.234-0.092,0.474-0.135,0.719-0.129C15.276,32.616,15.515,32.671,15.747,32.774 M16.06,34.997   c0.131-0.296,0.138-0.586,0.017-0.87c-0.121-0.284-0.338-0.497-0.648-0.636c-0.308-0.138-0.612-0.156-0.909-0.057   c-0.297,0.101-0.512,0.295-0.641,0.586c-0.133,0.295-0.137,0.587-0.015,0.876c0.125,0.287,0.34,0.5,0.65,0.639   c0.313,0.141,0.618,0.162,0.908,0.062C15.712,35.497,15.925,35.298,16.06,34.997"/>
	<path fill="#FFFFFF" d="M19.133,30.44l-0.44,0.759l-1.912-0.023l1.441,0.835l-0.382,0.66l-3.086-1.79l0.547-0.944   c0.217-0.375,0.453-0.614,0.708-0.716c0.254-0.102,0.525-0.07,0.819,0.101c0.213,0.124,0.356,0.292,0.433,0.507   c0.075,0.215,0.068,0.432-0.024,0.648L19.133,30.44z M16.452,30.985l0.057-0.099c0.154-0.268,0.229-0.459,0.219-0.58   c-0.008-0.119-0.086-0.223-0.23-0.305c-0.152-0.089-0.287-0.103-0.402-0.05c-0.118,0.055-0.251,0.209-0.398,0.463l-0.057,0.101   L16.452,30.985z"/>
	<path fill="#FFFFFF" d="M19.349,30.043l-2.556-2.546l0.473-0.645l2.099,0.688c0.045,0.013,0.106,0.039,0.183,0.075   c0.08,0.038,0.167,0.081,0.263,0.134c-0.081-0.076-0.152-0.146-0.214-0.211c-0.059-0.064-0.101-0.113-0.126-0.149l-1.277-1.803   l0.465-0.636l3.2,1.667l-0.429,0.584l-1.889-1.061c-0.139-0.079-0.245-0.139-0.313-0.183c-0.07-0.043-0.133-0.084-0.189-0.125   c-0.03-0.023-0.052-0.039-0.067-0.052c-0.015-0.011-0.027-0.023-0.039-0.032c0.099,0.102,0.182,0.191,0.252,0.27   c0.069,0.077,0.118,0.139,0.149,0.184l1.395,1.956l-0.254,0.347l-2.279-0.749c-0.021-0.007-0.076-0.03-0.167-0.069   c-0.09-0.039-0.221-0.098-0.391-0.175l0.083,0.063c0.134,0.097,0.289,0.228,0.467,0.396l0.005,0.006l1.582,1.481L19.349,30.043z"/>
	<path fill="#FFFFFF" d="M22.11,26.342l-1.697-3.418l0.592-0.64l3.554,1.411l-0.589,0.637l-0.753-0.302l-0.938,1.014l0.388,0.698   L22.11,26.342z M22.656,23.753l-1.119-0.489c-0.032-0.015-0.084-0.043-0.158-0.086c-0.072-0.043-0.159-0.098-0.261-0.167   c0.07,0.095,0.132,0.181,0.186,0.256c0.054,0.076,0.088,0.13,0.106,0.158l0.573,1.055L22.656,23.753z"/>
	<path fill="#FFFFFF" d="M25.052,23.227l-2.334-2.698l0.599-0.518l2.552,0.536c0.072,0.016,0.164,0.045,0.274,0.089   c0.111,0.046,0.237,0.104,0.375,0.173c-0.083-0.067-0.162-0.138-0.236-0.21c-0.075-0.074-0.163-0.168-0.264-0.288l-1.306-1.508   l0.549-0.477l2.335,2.697l-0.566,0.489l-2.61-0.539c-0.073-0.014-0.165-0.043-0.275-0.089c-0.109-0.046-0.235-0.106-0.377-0.176   c0.081,0.064,0.158,0.135,0.233,0.209c0.074,0.073,0.165,0.171,0.268,0.29l1.333,1.542L25.052,23.227z"/>
	<path fill="#FFFFFF" d="M28.478,20.36l-2.01-2.946l0.801-0.548c0.318-0.217,0.583-0.365,0.795-0.445   c0.213-0.08,0.423-0.116,0.632-0.106c0.27,0.012,0.518,0.086,0.748,0.226c0.231,0.138,0.433,0.337,0.608,0.594   c0.18,0.263,0.291,0.525,0.335,0.792c0.042,0.266,0.02,0.525-0.071,0.781c-0.069,0.188-0.17,0.36-0.306,0.516   c-0.135,0.153-0.36,0.339-0.678,0.555l-0.224,0.152L28.478,20.36z M28.747,19.397l0.349-0.237c0.33-0.225,0.52-0.465,0.567-0.719   c0.048-0.252-0.038-0.542-0.261-0.869c-0.222-0.326-0.46-0.51-0.715-0.559c-0.252-0.048-0.545,0.041-0.875,0.266l-0.351,0.238   L28.747,19.397z"/>
	<path fill="#FFFFFF" d="M34.262,14.844c0.118,0.226,0.189,0.461,0.211,0.706c0.021,0.247-0.007,0.488-0.085,0.722   c-0.083,0.244-0.203,0.462-0.365,0.653c-0.163,0.191-0.353,0.344-0.574,0.461c-0.192,0.099-0.398,0.165-0.617,0.196   c-0.218,0.031-0.438,0.027-0.656-0.013c-0.281-0.055-0.533-0.164-0.754-0.329c-0.221-0.165-0.397-0.373-0.53-0.625   c-0.119-0.23-0.19-0.463-0.211-0.706s0.008-0.483,0.089-0.725c0.077-0.237,0.197-0.454,0.362-0.647   c0.165-0.195,0.358-0.35,0.58-0.466c0.22-0.116,0.456-0.187,0.709-0.209c0.251-0.023,0.499,0,0.738,0.069   c0.24,0.072,0.457,0.187,0.645,0.343C33.992,14.428,34.144,14.619,34.262,14.844 M33.134,16.783   c0.286-0.15,0.469-0.375,0.549-0.673c0.082-0.298,0.043-0.598-0.115-0.899c-0.158-0.3-0.384-0.501-0.68-0.607   c-0.294-0.106-0.584-0.085-0.866,0.063c-0.286,0.151-0.47,0.376-0.552,0.68c-0.082,0.302-0.043,0.602,0.114,0.903   c0.16,0.306,0.386,0.508,0.676,0.61C32.55,16.961,32.841,16.936,33.134,16.783"/>
	<polygon fill="#FFFFFF" points="38.039,12.163 38.99,14.923 38.267,15.172 37.315,12.413 36.491,12.697 36.279,12.083    38.65,11.264 38.863,11.879  "/>
	<path fill="#FFFFFF" d="M39.939,14.576l0.438-3.791l0.846-0.214l2.21,3.119l-0.84,0.212l-0.467-0.665l-1.338,0.343l-0.055,0.794   L39.939,14.576z M41.807,12.701l-0.671-1.019c-0.019-0.029-0.048-0.083-0.086-0.158c-0.037-0.077-0.08-0.171-0.128-0.283   c0.007,0.118,0.013,0.225,0.016,0.317c0.005,0.093,0.005,0.156,0.003,0.19l-0.092,1.198L41.807,12.701z"/>
	<polygon fill="#FFFFFF" points="44.126,13.588 43.557,10.067 44.31,9.947 44.776,12.828 45.978,12.634 46.082,13.272  "/>
	<polygon fill="#FFFFFF" points="46.884,13.182 46.595,9.625 48.69,9.456 48.741,10.096 47.408,10.206 47.467,10.936 48.801,10.829    48.853,11.474 47.52,11.582 47.592,12.473 48.923,12.365 48.978,13.01  "/>
	<path fill="#FFFFFF" d="M50.04,12.949l0.078-3.568L50.91,9.4l1.533,2.11c0.045,0.061,0.094,0.142,0.145,0.25   c0.052,0.108,0.105,0.234,0.16,0.38c-0.017-0.106-0.027-0.209-0.032-0.315c-0.005-0.104-0.006-0.234-0.003-0.389l0.042-1.996   l0.73,0.017l-0.078,3.565l-0.748-0.016l-1.576-2.149c-0.043-0.062-0.091-0.143-0.144-0.251c-0.05-0.107-0.105-0.235-0.161-0.384   c0.016,0.1,0.027,0.207,0.032,0.311c0.006,0.105,0.007,0.236,0.003,0.395l-0.043,2.037L50.04,12.949z"/>
	<polygon fill="#FFFFFF" points="56.184,10.401 55.83,13.3 55.071,13.207 55.426,10.31 54.56,10.204 54.64,9.559 57.13,9.865    57.051,10.508  "/>
	<path fill="#FFFFFF" d="M61.371,12.576c-0.057,0.248-0.155,0.474-0.298,0.674c-0.143,0.201-0.32,0.366-0.532,0.496   c-0.22,0.13-0.452,0.218-0.699,0.258c-0.249,0.042-0.494,0.034-0.736-0.022c-0.212-0.046-0.41-0.129-0.599-0.248   c-0.188-0.118-0.35-0.263-0.49-0.435c-0.18-0.224-0.3-0.471-0.362-0.739c-0.062-0.268-0.061-0.542,0.003-0.821   c0.055-0.25,0.154-0.475,0.296-0.674c0.142-0.198,0.319-0.363,0.536-0.494c0.212-0.131,0.444-0.217,0.695-0.258   c0.252-0.042,0.5-0.036,0.743,0.019c0.243,0.056,0.469,0.156,0.676,0.301c0.208,0.145,0.381,0.322,0.52,0.531   c0.137,0.211,0.227,0.437,0.269,0.677C61.435,12.083,61.428,12.327,61.371,12.576 M59.255,13.321   c0.315,0.07,0.601,0.019,0.857-0.156c0.254-0.175,0.419-0.428,0.493-0.761c0.074-0.33,0.032-0.63-0.124-0.903   c-0.156-0.271-0.391-0.442-0.701-0.512c-0.315-0.072-0.602-0.017-0.859,0.159c-0.258,0.178-0.425,0.434-0.5,0.764   c-0.076,0.336-0.036,0.637,0.119,0.901C58.696,13.08,58.934,13.249,59.255,13.321"/>
	<path fill="#FFFFFF" d="M63.286,15.04l2.596-2.799l0.81,0.326l-0.061,3.823l-0.805-0.324l0.014-0.812l-1.28-0.517l-0.513,0.609   L63.286,15.04z M65.899,14.631l0.063-1.218c0.001-0.036,0.011-0.096,0.025-0.181c0.014-0.082,0.035-0.182,0.061-0.301   c-0.062,0.098-0.12,0.186-0.172,0.264c-0.054,0.078-0.089,0.131-0.109,0.155l-0.784,0.912L65.899,14.631z"/>
	<path fill="#FFFFFF" d="M71.545,14.941L70.506,16.9c-0.229,0.429-0.511,0.688-0.848,0.781c-0.337,0.091-0.73,0.016-1.186-0.226   c-0.46-0.245-0.747-0.531-0.861-0.862c-0.112-0.329-0.057-0.709,0.171-1.136l1.04-1.96l0.67,0.354l-0.984,1.856   c-0.139,0.259-0.185,0.486-0.139,0.677c0.044,0.192,0.182,0.35,0.41,0.471c0.229,0.122,0.438,0.148,0.624,0.078   c0.188-0.071,0.352-0.234,0.489-0.491l0.983-1.856L71.545,14.941z"/>
	<polygon fill="#FFFFFF" points="73.533,16.979 71.927,19.416 71.287,18.996 72.896,16.559 72.167,16.078 72.523,15.537    74.619,16.919 74.261,17.46  "/>
	<path fill="#FFFFFF" d="M77.212,21.231c-0.163,0.195-0.352,0.355-0.566,0.471c-0.218,0.116-0.451,0.185-0.698,0.207   c-0.256,0.021-0.503-0.006-0.743-0.081c-0.238-0.071-0.455-0.188-0.648-0.343c-0.169-0.138-0.311-0.301-0.427-0.49   c-0.115-0.189-0.197-0.392-0.245-0.608c-0.062-0.28-0.061-0.556,0.005-0.822c0.064-0.269,0.186-0.514,0.366-0.736   c0.162-0.198,0.351-0.356,0.564-0.471c0.214-0.116,0.448-0.184,0.7-0.205c0.248-0.023,0.495,0.002,0.738,0.078   c0.245,0.074,0.463,0.191,0.657,0.35c0.193,0.155,0.351,0.345,0.472,0.567c0.121,0.223,0.199,0.457,0.229,0.708   c0.029,0.25,0.01,0.491-0.059,0.727C77.486,20.817,77.373,21.034,77.212,21.231 M74.984,20.958   c0.252,0.204,0.531,0.283,0.836,0.241c0.307-0.043,0.565-0.198,0.781-0.463c0.213-0.261,0.31-0.55,0.29-0.863   c-0.021-0.313-0.152-0.57-0.399-0.771c-0.251-0.204-0.532-0.285-0.844-0.24c-0.309,0.044-0.57,0.198-0.783,0.462   c-0.218,0.268-0.316,0.553-0.296,0.861C74.59,20.493,74.728,20.75,74.984,20.958"/>
	<path fill="#FFFFFF" d="M76.567,23.027l2.948-2.079l0.554,0.577l-1.039,1.951c-0.021,0.04-0.059,0.098-0.106,0.166   c-0.05,0.072-0.107,0.151-0.177,0.235c0.09-0.066,0.172-0.125,0.245-0.173c0.073-0.047,0.13-0.081,0.169-0.097l1.995-0.946   l0.546,0.566l-2.196,2.863l-0.499-0.521l1.371-1.679c0.1-0.124,0.179-0.217,0.231-0.277c0.056-0.061,0.108-0.115,0.158-0.164   c0.026-0.026,0.049-0.045,0.061-0.059c0.015-0.011,0.028-0.021,0.039-0.03c-0.117,0.079-0.221,0.145-0.309,0.199   s-0.158,0.093-0.208,0.116l-2.168,1.035l-0.298-0.31l1.132-2.116c0.011-0.021,0.043-0.07,0.097-0.152   c0.055-0.083,0.134-0.201,0.239-0.356l-0.075,0.074c-0.12,0.113-0.276,0.244-0.471,0.39l-0.008,0.004l-1.732,1.303L76.567,23.027z"/>
	<path fill="#FFFFFF" d="M83.605,28.577c-0.205,0.152-0.428,0.26-0.667,0.317c-0.238,0.061-0.479,0.07-0.725,0.029   c-0.253-0.042-0.487-0.127-0.7-0.258c-0.215-0.13-0.396-0.294-0.545-0.494c-0.13-0.175-0.227-0.367-0.293-0.58   c-0.066-0.211-0.094-0.426-0.087-0.649c0.01-0.288,0.078-0.552,0.205-0.796c0.128-0.244,0.308-0.45,0.536-0.624   c0.206-0.152,0.427-0.258,0.664-0.317c0.236-0.058,0.479-0.068,0.729-0.026c0.245,0.039,0.479,0.125,0.695,0.259   c0.219,0.13,0.402,0.297,0.552,0.5c0.147,0.198,0.255,0.42,0.318,0.666c0.063,0.247,0.079,0.493,0.047,0.741   c-0.034,0.25-0.111,0.479-0.237,0.69C83.975,28.242,83.81,28.425,83.605,28.577 M81.515,27.764c0.192,0.26,0.443,0.407,0.751,0.44   c0.307,0.033,0.599-0.052,0.872-0.257c0.269-0.201,0.435-0.455,0.491-0.763c0.059-0.309-0.008-0.591-0.197-0.847   c-0.194-0.258-0.446-0.406-0.757-0.439c-0.312-0.033-0.604,0.051-0.876,0.254c-0.276,0.207-0.441,0.46-0.497,0.764   C81.247,27.216,81.318,27.5,81.515,27.764"/>
	<polygon fill="#FFFFFF" points="85.813,30.028 83.31,31.529 82.916,30.874 85.42,29.372 84.97,28.625 85.527,28.29 86.817,30.443    86.262,30.775  "/>
	<path fill="#FFFFFF" d="M85.281,35.325l-0.386-0.79l1.086-1.576l-1.498,0.732l-0.335-0.685l3.204-1.569l0.479,0.982   c0.191,0.389,0.257,0.717,0.202,0.986c-0.057,0.268-0.236,0.477-0.54,0.626c-0.22,0.106-0.44,0.132-0.661,0.076   c-0.222-0.057-0.396-0.184-0.526-0.381L85.281,35.325z M86.321,32.793l0.05,0.102c0.138,0.277,0.256,0.447,0.36,0.506   c0.104,0.059,0.231,0.053,0.382-0.022c0.157-0.076,0.245-0.179,0.267-0.307c0.02-0.127-0.035-0.324-0.165-0.588l-0.05-0.104   L86.321,32.793z"/>
	
		<rect x="85.584" y="35.371" transform="matrix(-0.9268 0.3754 -0.3754 -0.9268 181.7693 36.0892)" fill="#FFFFFF" width="3.569" height="0.764"/>
	<polygon fill="#FFFFFF" points="87.089,40.337 86.159,37.489 89.544,38.329 89.03,36.754 89.61,36.565 90.502,39.302    87.123,38.461 87.672,40.146  "/>
	<path fill="#FFFFFF" d="M13.63,57.045l-2.101,0.283c-0.457,0.061-0.815-0.015-1.075-0.226c-0.258-0.209-0.419-0.557-0.485-1.044   c-0.066-0.492-0.002-0.875,0.191-1.146s0.519-0.438,0.976-0.499l2.099-0.284l0.098,0.717l-1.988,0.269   c-0.278,0.038-0.478,0.126-0.603,0.267c-0.124,0.143-0.169,0.337-0.135,0.58c0.032,0.247,0.127,0.424,0.285,0.53   c0.16,0.105,0.377,0.143,0.654,0.104l1.987-0.268L13.63,57.045z"/>
	<path fill="#FFFFFF" d="M10.502,58.838l3.307-0.814l0.182,0.734l-1.564,1.936c-0.044,0.056-0.109,0.12-0.195,0.196   c-0.086,0.075-0.191,0.155-0.311,0.241c0.093-0.04,0.187-0.075,0.282-0.105c0.094-0.032,0.214-0.064,0.359-0.102l1.85-0.456   l0.165,0.676l-3.305,0.814L11.1,61.265l1.59-1.987c0.044-0.056,0.109-0.118,0.196-0.193c0.086-0.074,0.191-0.155,0.314-0.245   c-0.091,0.038-0.184,0.076-0.278,0.106c-0.096,0.033-0.218,0.066-0.365,0.102l-1.888,0.466L10.502,58.838z"/>
	
		<rect x="11.712" y="62.652" transform="matrix(-0.9493 0.3145 -0.3145 -0.9493 45.9626 118.6184)" fill="#FFFFFF" width="3.404" height="0.728"/>
	<path fill="#FFFFFF" d="M12.656,65.909l2.676-2.453l0.304,0.744l-1.715,1.417c-0.036,0.028-0.103,0.077-0.201,0.146   c-0.1,0.069-0.212,0.146-0.341,0.23c0.143-0.036,0.271-0.064,0.386-0.086c0.111-0.021,0.208-0.033,0.284-0.04l2.198-0.173   l0.301,0.736l-3.631,0.115L12.656,65.909z"/>
	<polygon fill="#FFFFFF" points="13.803,68.543 16.835,66.995 17.747,68.78 17.2,69.059 16.619,67.923 15.996,68.239 16.576,69.377    16.025,69.659 15.444,68.522 14.684,68.909 15.265,70.048 14.715,70.329  "/>
	<path fill="#FFFFFF" d="M16.628,73.526l-0.441-0.714l0.883-1.598l-1.354,0.836l-0.381-0.619l2.896-1.79l0.548,0.887   c0.218,0.353,0.312,0.657,0.283,0.919c-0.028,0.26-0.179,0.474-0.453,0.643c-0.199,0.123-0.407,0.167-0.622,0.135   c-0.216-0.033-0.392-0.137-0.535-0.312L16.628,73.526z M17.378,71.024l0.058,0.094c0.154,0.248,0.284,0.399,0.389,0.445   c0.104,0.045,0.225,0.027,0.36-0.057c0.144-0.089,0.218-0.195,0.224-0.318c0.007-0.124-0.064-0.304-0.211-0.542l-0.057-0.094   L17.378,71.024z"/>
	<path fill="#FFFFFF" d="M17.408,73.893l0.609,0.054c-0.07,0.117-0.102,0.242-0.093,0.374c0.009,0.135,0.055,0.258,0.14,0.372   c0.1,0.137,0.214,0.224,0.337,0.254c0.124,0.032,0.24,0.008,0.35-0.072c0.13-0.098,0.162-0.324,0.095-0.685   c-0.023-0.118-0.039-0.21-0.049-0.278c-0.053-0.332-0.053-0.588-0.001-0.77c0.051-0.179,0.159-0.33,0.324-0.452   c0.225-0.165,0.477-0.212,0.755-0.143c0.278,0.075,0.521,0.252,0.732,0.539c0.122,0.166,0.198,0.33,0.229,0.493   c0.031,0.164,0.017,0.337-0.038,0.521l-0.587-0.102c0.05-0.103,0.069-0.2,0.058-0.296c-0.011-0.098-0.051-0.193-0.122-0.292   c-0.086-0.114-0.184-0.187-0.294-0.216c-0.11-0.028-0.211-0.009-0.305,0.059c-0.144,0.107-0.172,0.347-0.083,0.718   c0.017,0.071,0.03,0.129,0.04,0.169c0.063,0.312,0.071,0.571,0.019,0.782c-0.052,0.21-0.163,0.377-0.333,0.502   c-0.258,0.19-0.527,0.254-0.81,0.19c-0.282-0.063-0.533-0.243-0.75-0.537c-0.155-0.211-0.25-0.416-0.289-0.618   C17.303,74.256,17.326,74.066,17.408,73.893"/>
	
		<rect x="18.964" y="75.678" transform="matrix(-0.7662 0.6426 -0.6426 -0.7662 85.3636 121.0283)" fill="#FFFFFF" width="3.404" height="0.728"/>
	<path fill="#FFFFFF" d="M20.452,78.42l2.437-2.378l0.647,0.667c0.255,0.26,0.439,0.485,0.55,0.671   c0.111,0.187,0.179,0.379,0.204,0.577c0.036,0.254,0.005,0.501-0.086,0.739c-0.094,0.239-0.246,0.463-0.459,0.671   c-0.215,0.21-0.445,0.358-0.688,0.444c-0.244,0.086-0.493,0.107-0.748,0.063c-0.188-0.035-0.365-0.102-0.534-0.203   c-0.167-0.103-0.379-0.282-0.636-0.547l-0.179-0.182L20.452,78.42z M21.399,78.514l0.284,0.29c0.267,0.271,0.523,0.41,0.77,0.415   c0.245,0.002,0.503-0.127,0.772-0.391c0.269-0.261,0.404-0.518,0.409-0.762c0.002-0.247-0.129-0.508-0.396-0.781l-0.283-0.29   L21.399,78.514z"/>
	<path fill="#FFFFFF" d="M23.039,81.032l3.185-1.767l0.637,0.537l-1.191,3.449l-0.633-0.533l0.254-0.731l-1.007-0.852l-0.648,0.4   L23.039,81.032z M25.531,81.441l0.417-1.088c0.012-0.031,0.039-0.083,0.076-0.155c0.039-0.07,0.087-0.156,0.146-0.255   c-0.085,0.068-0.165,0.134-0.235,0.188c-0.07,0.056-0.119,0.091-0.145,0.106l-0.981,0.595L25.531,81.441z"/>
	<path fill="#FFFFFF" d="M26.427,83.812l1.929-2.806l0.764,0.526c0.302,0.206,0.525,0.392,0.67,0.554   c0.146,0.16,0.249,0.335,0.313,0.523c0.083,0.244,0.102,0.493,0.058,0.744c-0.045,0.252-0.152,0.502-0.322,0.747   c-0.17,0.249-0.366,0.439-0.588,0.571c-0.222,0.13-0.462,0.198-0.721,0.205c-0.191,0.004-0.378-0.028-0.563-0.096   c-0.184-0.067-0.427-0.204-0.729-0.412l-0.212-0.145L26.427,83.812z M27.375,83.717l0.333,0.23   c0.314,0.215,0.592,0.302,0.835,0.259c0.242-0.045,0.469-0.223,0.683-0.533c0.213-0.31,0.296-0.585,0.25-0.828   c-0.044-0.242-0.224-0.473-0.538-0.687l-0.333-0.229L27.375,83.717z"/>
	<path fill="#FFFFFF" d="M31.584,87.052l1.534-3.042l0.747,0.376c0.398,0.203,0.655,0.427,0.769,0.674   c0.113,0.25,0.09,0.534-0.071,0.853c-0.148,0.294-0.361,0.476-0.638,0.548c-0.276,0.07-0.583,0.021-0.922-0.15l-0.178-0.09   l-0.586,1.16L31.584,87.052z M33.08,85.713l0.094,0.048c0.176,0.089,0.324,0.117,0.441,0.085c0.117-0.034,0.216-0.132,0.298-0.294   c0.076-0.149,0.092-0.279,0.045-0.388c-0.045-0.108-0.157-0.21-0.335-0.297l-0.092-0.049L33.08,85.713z"/>
	<path fill="#FFFFFF" d="M38.345,88.165c-0.088,0.228-0.214,0.425-0.378,0.595c-0.163,0.169-0.354,0.298-0.573,0.392   c-0.226,0.092-0.458,0.141-0.698,0.144c-0.239,0.002-0.469-0.039-0.691-0.125c-0.193-0.076-0.37-0.182-0.53-0.319   c-0.159-0.139-0.292-0.299-0.399-0.483c-0.138-0.236-0.217-0.486-0.236-0.748c-0.02-0.264,0.02-0.522,0.12-0.776   c0.088-0.227,0.213-0.425,0.375-0.592c0.163-0.168,0.354-0.297,0.577-0.39c0.219-0.093,0.451-0.142,0.694-0.145   c0.242-0.003,0.477,0.04,0.7,0.125c0.22,0.086,0.419,0.214,0.594,0.38s0.313,0.358,0.414,0.574c0.098,0.22,0.151,0.445,0.156,0.679   C38.474,87.709,38.433,87.938,38.345,88.165 M36.242,88.565c0.287,0.112,0.563,0.104,0.829-0.024   c0.267-0.128,0.457-0.346,0.576-0.648c0.117-0.3,0.121-0.591,0.012-0.868c-0.11-0.28-0.305-0.474-0.589-0.584   c-0.287-0.112-0.564-0.104-0.834,0.026c-0.27,0.132-0.462,0.349-0.581,0.649c-0.12,0.306-0.125,0.594-0.017,0.869   C35.748,88.257,35.948,88.45,36.242,88.565"/>
	<polygon fill="#FFFFFF" points="38.866,90.081 39.809,86.808 40.508,87.01 39.737,89.688 40.854,90.009 40.683,90.604  "/>
	
		<rect x="40.657" y="88.88" transform="matrix(-0.2205 0.9754 -0.9754 -0.2205 138.7478 67.6101)" fill="#FFFFFF" width="3.405" height="0.728"/>
	<polygon fill="#FFFFFF" points="45.298,88.696 44.853,91.447 44.131,91.331 44.577,88.582 43.754,88.447 43.853,87.839    46.219,88.22 46.119,88.832  "/>
	<path fill="#FFFFFF" d="M46.691,91.695l0.279-3.393l1.998,0.167l-0.052,0.61l-1.272-0.104l-0.057,0.695l1.272,0.106l-0.052,0.616   l-1.273-0.106l-0.069,0.852l1.272,0.105l-0.051,0.617L46.691,91.695z M48.739,87.264l-0.797,0.797l-0.33-0.028l0.528-0.817   L48.739,87.264z"/>
	<path fill="#FFFFFF" d="M52.689,89.391c-0.147-0.132-0.299-0.227-0.455-0.288c-0.154-0.061-0.319-0.089-0.497-0.088   c-0.363,0.001-0.652,0.11-0.866,0.33c-0.214,0.217-0.32,0.51-0.318,0.876c0.003,0.358,0.104,0.642,0.304,0.851   c0.203,0.21,0.475,0.313,0.821,0.311c0.198,0,0.38-0.035,0.549-0.103c0.169-0.065,0.324-0.167,0.468-0.298v0.745   c-0.155,0.092-0.315,0.163-0.485,0.208c-0.171,0.047-0.349,0.069-0.536,0.071c-0.545,0.002-0.989-0.165-1.34-0.498   c-0.35-0.336-0.527-0.764-0.529-1.282c-0.003-0.518,0.168-0.946,0.516-1.286c0.346-0.337,0.795-0.508,1.346-0.513   c0.184,0,0.362,0.02,0.534,0.058c0.173,0.038,0.342,0.096,0.512,0.175L52.689,89.391z"/>
	<path fill="#FFFFFF" d="M53.982,91.845l-0.376-3.386l0.751-0.082l1.717,1.803c0.05,0.051,0.105,0.124,0.169,0.219   c0.063,0.093,0.129,0.208,0.202,0.339c-0.03-0.099-0.055-0.195-0.072-0.293c-0.019-0.099-0.036-0.221-0.053-0.368l-0.209-1.896   l0.689-0.076l0.377,3.386l-0.71,0.077l-1.763-1.835c-0.05-0.05-0.105-0.122-0.167-0.22c-0.063-0.095-0.128-0.209-0.201-0.343   c0.027,0.096,0.051,0.19,0.068,0.289c0.019,0.1,0.038,0.225,0.054,0.376l0.215,1.933L53.982,91.845z"/>
	
		<rect x="56.809" y="89.138" transform="matrix(0.1893 0.9819 -0.9819 0.1893 135.3163 15.1035)" fill="#FFFFFF" width="3.404" height="0.727"/>
	<path fill="#FFFFFF" d="M62.467,87.699c-0.176-0.09-0.348-0.144-0.512-0.164c-0.167-0.019-0.336-0.004-0.505,0.042   c-0.352,0.095-0.603,0.274-0.754,0.541c-0.151,0.264-0.18,0.574-0.085,0.927c0.093,0.346,0.265,0.596,0.512,0.744   c0.247,0.151,0.539,0.183,0.872,0.094c0.189-0.052,0.359-0.13,0.504-0.239c0.147-0.108,0.272-0.242,0.376-0.409l0.191,0.724   c-0.127,0.129-0.266,0.236-0.417,0.324c-0.153,0.087-0.318,0.155-0.501,0.204c-0.524,0.142-0.998,0.095-1.422-0.141   s-0.702-0.604-0.837-1.105c-0.136-0.499-0.078-0.958,0.173-1.374c0.248-0.414,0.638-0.694,1.17-0.838   c0.178-0.049,0.354-0.076,0.531-0.083c0.176-0.006,0.355,0.007,0.538,0.041L62.467,87.699z"/>
	<path fill="#FFFFFF" d="M63.944,89.895l-0.006-3.644l0.776-0.297l2.444,2.711l-0.773,0.296l-0.517-0.578l-1.231,0.472l0.036,0.76   L63.944,89.895z M65.506,87.909l-0.749-0.891c-0.022-0.027-0.056-0.074-0.1-0.143c-0.043-0.067-0.097-0.15-0.153-0.251   c0.02,0.11,0.037,0.209,0.051,0.297c0.015,0.088,0.021,0.148,0.022,0.18l0.047,1.146L65.506,87.909z"/>
	<path fill="#FFFFFF" d="M69.751,87.467l-1.638-2.986l0.814-0.445c0.319-0.177,0.584-0.292,0.795-0.349   c0.208-0.058,0.411-0.071,0.609-0.044c0.255,0.034,0.483,0.131,0.69,0.283c0.206,0.153,0.378,0.361,0.521,0.622   c0.146,0.265,0.228,0.526,0.245,0.784c0.016,0.256-0.03,0.502-0.142,0.735c-0.081,0.172-0.193,0.325-0.337,0.46   c-0.143,0.134-0.375,0.289-0.694,0.464l-0.228,0.125L69.751,87.467z M70.094,86.577l0.354-0.194   c0.334-0.182,0.537-0.394,0.605-0.629c0.069-0.236,0.013-0.52-0.168-0.85c-0.181-0.329-0.39-0.527-0.626-0.596   c-0.237-0.07-0.523-0.015-0.856,0.17l-0.355,0.197L70.094,86.577z"/>
	<polygon fill="#FFFFFF" points="73.354,85.398 71.453,82.573 73.116,81.454 73.459,81.966 72.4,82.676 72.791,83.259 73.85,82.545    74.194,83.059 73.135,83.771 73.612,84.479 74.671,83.765 75.017,84.277  "/>
	<path fill="#FFFFFF" d="M80.423,80.285l-0.535,0.486l-0.567-0.075c-0.095,0.144-0.177,0.26-0.246,0.349   c-0.067,0.09-0.135,0.162-0.199,0.222c-0.173,0.156-0.372,0.275-0.6,0.358s-0.459,0.121-0.691,0.112   c-0.239-0.007-0.466-0.063-0.681-0.162c-0.215-0.102-0.401-0.238-0.563-0.415c-0.159-0.177-0.278-0.377-0.355-0.599   c-0.079-0.22-0.11-0.451-0.097-0.694c0.012-0.237,0.071-0.464,0.175-0.678c0.104-0.219,0.247-0.406,0.431-0.572   c0.177-0.16,0.378-0.284,0.602-0.367s0.456-0.119,0.695-0.109c0.241,0.01,0.468,0.063,0.681,0.162   c0.211,0.096,0.398,0.237,0.562,0.414c0.18,0.199,0.307,0.42,0.379,0.665c0.074,0.245,0.093,0.504,0.057,0.781L80.423,80.285z    M78.415,80.016l0.384,0.051c0.005-0.15-0.021-0.299-0.079-0.446c-0.057-0.146-0.137-0.277-0.241-0.392   c-0.218-0.238-0.476-0.372-0.773-0.399c-0.297-0.026-0.557,0.059-0.781,0.265c-0.228,0.205-0.343,0.457-0.346,0.757   c-0.002,0.298,0.106,0.567,0.324,0.807c0.22,0.242,0.475,0.376,0.767,0.402c0.291,0.026,0.552-0.063,0.777-0.269   c0.02-0.017,0.045-0.044,0.076-0.08c0.031-0.035,0.066-0.079,0.107-0.129l-0.739-0.091L78.415,80.016z"/>
	<path fill="#FFFFFF" d="M80.413,74.644l1.586,1.404c0.347,0.306,0.523,0.627,0.531,0.959c0.012,0.333-0.147,0.683-0.473,1.05   c-0.328,0.372-0.657,0.575-0.992,0.605c-0.332,0.032-0.671-0.105-1.016-0.412l-1.588-1.406l0.48-0.54l1.501,1.328   c0.21,0.188,0.409,0.28,0.598,0.28c0.189,0.002,0.364-0.088,0.527-0.273c0.165-0.186,0.235-0.374,0.214-0.563   c-0.023-0.19-0.139-0.377-0.348-0.563l-1.502-1.327L80.413,74.644z"/>
	<polygon fill="#FFFFFF" points="83.778,75.853 81.033,73.838 82.221,72.222 82.716,72.585 81.96,73.614 82.523,74.029 83.28,73    83.778,73.365 83.023,74.394 83.711,74.9 84.466,73.869 84.964,74.237  "/>
	<path fill="#FFFFFF" d="M86.963,71.094l-0.44,0.717l-1.824-0.073l1.354,0.836L85.67,73.19l-2.896-1.786l0.547-0.888   c0.217-0.352,0.447-0.572,0.692-0.664c0.245-0.093,0.505-0.053,0.778,0.116c0.199,0.124,0.333,0.288,0.399,0.495   c0.067,0.208,0.055,0.413-0.039,0.618L86.963,71.094z M84.389,71.548l0.059-0.093c0.154-0.252,0.229-0.435,0.223-0.548   c-0.005-0.115-0.074-0.214-0.21-0.299c-0.143-0.088-0.271-0.107-0.384-0.057c-0.114,0.049-0.244,0.192-0.391,0.432l-0.058,0.093   L84.389,71.548z"/>
	<path fill="#FFFFFF" d="M84.102,66.661l0.435,1.039l-0.151,0.293l-0.556-0.797L84.102,66.661z M87.424,70.24l-3.031-1.547   l0.912-1.787l0.546,0.279l-0.581,1.137l0.623,0.317l0.581-1.137l0.551,0.281l-0.58,1.138l0.76,0.388l0.58-1.138l0.552,0.281   L87.424,70.24z"/>
	<polygon fill="#FFFFFF" points="86.776,65.071 89.347,66.145 89.065,66.819 86.495,65.744 86.175,66.514 85.604,66.274    86.525,64.066 87.098,64.304  "/>
	<path fill="#FFFFFF" d="M89.813,65.047l-2.833-2.289l0.259-0.792l3.646-0.188l-0.259,0.787l-0.773,0.037l-0.41,1.253l0.613,0.452   L89.813,65.047z M89.258,62.585l-1.165,0.021c-0.035,0-0.092-0.005-0.173-0.015c-0.08-0.008-0.178-0.021-0.292-0.038   c0.098,0.054,0.187,0.102,0.264,0.148c0.077,0.044,0.128,0.075,0.153,0.092l0.918,0.69L89.258,62.585z"/>
	<path fill="#FFFFFF" d="M91.66,58.479l-0.189,0.818l-1.752,0.514l1.55,0.359l-0.164,0.708l-3.316-0.766l0.235-1.018   c0.092-0.401,0.241-0.686,0.443-0.85c0.202-0.166,0.463-0.211,0.775-0.139c0.229,0.053,0.406,0.166,0.536,0.341   c0.131,0.175,0.183,0.375,0.161,0.599L91.66,58.479z M89.366,59.729l0.024-0.105c0.065-0.288,0.079-0.484,0.037-0.591   c-0.041-0.107-0.139-0.178-0.295-0.213c-0.164-0.038-0.291-0.019-0.381,0.067c-0.094,0.083-0.171,0.261-0.233,0.535l-0.025,0.105   L89.366,59.729z"/>
	<path fill="#FFFFFF" d="M90.617,53.81c0.242,0.031,0.464,0.105,0.668,0.225c0.203,0.118,0.376,0.271,0.518,0.462   c0.145,0.198,0.248,0.41,0.309,0.642c0.061,0.232,0.076,0.466,0.046,0.7c-0.026,0.206-0.088,0.405-0.184,0.593   c-0.096,0.189-0.22,0.356-0.371,0.504c-0.196,0.192-0.42,0.326-0.671,0.41c-0.249,0.082-0.509,0.105-0.779,0.072   c-0.243-0.034-0.466-0.106-0.667-0.223c-0.202-0.118-0.375-0.272-0.518-0.465s-0.244-0.405-0.308-0.641   c-0.061-0.235-0.077-0.473-0.046-0.709c0.031-0.234,0.104-0.458,0.224-0.668c0.121-0.21,0.273-0.391,0.46-0.541   c0.188-0.148,0.395-0.254,0.621-0.315C90.144,53.794,90.377,53.78,90.617,53.81 M91.514,55.755c0.038-0.306-0.035-0.571-0.224-0.8   c-0.189-0.225-0.445-0.36-0.768-0.401c-0.319-0.04-0.602,0.024-0.847,0.196c-0.244,0.174-0.386,0.41-0.426,0.713   c-0.038,0.307,0.036,0.574,0.229,0.801c0.19,0.233,0.446,0.367,0.769,0.409c0.325,0.042,0.607-0.022,0.847-0.192   C91.333,56.309,91.473,56.067,91.514,55.755"/>
</g>
</svg>